<svg width="202" height="55" viewBox="0 0 202 55" fill="none" xmlns="http://www.w3.org/2000/svg">
<path d="M173.24 47.9002L163.255 39.4721L163.721 38.9199C164.259 39.3734 164.743 39.6883 165.173 39.8644C165.622 40.0389 166.021 40.1115 166.37 40.082C166.728 40.0609 167.048 39.9554 167.327 39.7654C167.607 39.5755 167.864 39.3412 168.099 39.0626L186.959 16.7196C187.127 16.5206 187.267 16.2731 187.381 15.9771C187.504 15.6894 187.546 15.3671 187.507 15.0101C187.486 14.6515 187.361 14.2648 187.132 13.8499C186.903 13.4349 186.519 13.0007 185.982 12.5472L186.448 11.995L193.806 18.2058L187.356 25.8475C187.938 25.8445 188.552 25.8942 189.198 25.9966C189.863 26.0975 190.538 26.2668 191.223 26.5046C191.919 26.7507 192.625 27.0744 193.343 27.4757C194.07 27.8854 194.797 28.3969 195.524 29.01C196.419 29.7658 197.235 30.6162 197.971 31.5612C198.707 32.5061 199.323 33.512 199.82 34.5788C200.327 35.654 200.694 36.7733 200.922 37.9368C201.158 39.0903 201.219 40.2585 201.107 41.4415C200.995 42.6245 200.477 43.8817 199.995 45.059C199.512 46.2364 201.498 40.8357 201.107 42.2271C200.68 43.7437 200.074 45.0814 199.288 46.24C198.506 47.3861 197.616 48.3869 196.618 49.2423C195.636 50.0888 194.582 50.8068 193.456 51.3962C192.333 51.9732 191.218 52.4508 190.111 52.8292C187.507 53.7199 184.693 54.2268 181.669 54.3501L181.256 53.7267C183.162 53.2485 184.974 52.4326 186.692 51.2791C187.423 50.795 188.17 50.2071 188.933 49.5153C189.695 48.8236 190.43 48.0157 191.136 47.0917C191.842 46.1677 192.495 45.1205 193.095 43.9501C193.711 42.7707 195.576 39.9966 194.495 42.2221C194.495 40.7221 195.271 40.8262 195.868 39.4729C196.475 38.1279 196.802 36.8621 196.85 35.6754C196.905 34.4787 196.702 33.3779 196.238 32.373C195.784 31.3765 195.109 30.5003 194.214 29.7444C193.408 29.0641 192.525 28.5659 191.565 28.2498C190.623 27.932 189.666 27.8143 188.694 27.8965C187.73 27.9688 186.773 28.2437 185.825 28.7212C184.885 29.1887 184.01 29.8726 183.199 30.7728L172.831 43.0561C172.663 43.2551 172.508 43.4993 172.366 43.7884C172.234 44.086 172.169 44.4149 172.172 44.775C172.185 45.1436 172.297 45.5452 172.51 45.98C172.74 46.4133 173.139 46.8693 173.706 47.348L173.24 47.9002Z" fill="#14325C"/>
<path d="M160.487 38.1816L151.212 33.3268L151.48 32.8146C151.987 33.0803 152.425 33.2445 152.792 33.3072C153.163 33.3607 153.483 33.3457 153.75 33.2621C154.026 33.1834 154.257 33.0456 154.442 32.8487C154.628 32.6518 154.788 32.4241 154.923 32.1657L163.473 15.8305L161.715 14.9103C161.226 14.6543 160.688 14.4253 160.1 14.2234C159.526 14.017 158.911 13.8891 158.255 13.8397C157.604 13.781 156.925 13.8197 156.219 13.9556C155.513 14.0916 154.79 14.3718 154.051 14.796L153.527 14.4159C153.979 14.1587 154.39 13.8332 154.761 13.4394C155.146 13.0411 155.484 12.6537 155.775 12.2771C156.1 11.8358 156.4 11.3754 156.674 10.896L175.972 20.9967C175.707 21.1875 175.466 21.402 175.247 21.6402C175.028 21.8784 174.823 22.1239 174.632 22.3766C174.446 22.6201 174.278 22.8616 174.129 23.1011C173.995 23.3362 173.879 23.5461 173.782 23.7307C173.729 23.8322 173.681 23.9245 173.637 24.0075C173.599 24.0814 173.569 24.1484 173.55 24.2086C173.525 24.278 173.503 24.3428 173.483 24.403L172.928 24.218C173.108 23.7834 173.174 23.3653 173.126 22.9637C173.086 22.5669 172.97 22.1943 172.776 21.8459C172.596 21.4932 172.362 21.165 172.074 20.8615C171.786 20.5579 171.486 20.2891 171.174 20.055C170.875 19.8165 170.583 19.6107 170.298 19.4377C170.012 19.2646 169.781 19.1322 169.606 19.0405L167.876 18.1347L159.326 34.4699C159.229 34.6544 159.15 34.872 159.09 35.1225C159.029 35.3729 159.036 35.641 159.11 35.9265C159.184 36.2121 159.341 36.5063 159.583 36.8089C159.838 37.1072 160.229 37.394 160.755 37.6694L160.487 38.1816Z" fill="#14325C"/>
<path d="M131.122 2.76324L138.622 5.06006L145.722 22.2685L149.163 11.0335C149.224 10.8343 149.25 10.608 149.24 10.3545C149.241 10.1041 149.17 9.85372 149.029 9.60348C148.901 9.34632 148.687 9.10115 148.388 8.86796C148.089 8.63477 147.671 8.43582 147.133 8.27111L147.302 7.71832L153.921 9.7452L153.751 10.298C153.204 10.1302 152.742 10.0542 152.367 10.0701C151.995 10.0759 151.678 10.1479 151.418 10.2861C151.171 10.4174 150.975 10.5969 150.829 10.8245C150.683 11.0522 150.567 11.3055 150.481 11.5843L144.73 30.3641L143.371 29.9477L134.016 7.50614L129.34 22.7749C129.279 22.9741 129.242 23.2024 129.229 23.4598C129.225 23.7201 129.281 23.9824 129.396 24.2464C129.522 24.5136 129.731 24.7737 130.023 25.0268C130.329 25.273 130.766 25.483 131.334 25.6569L131.165 26.2097L124.561 24.1874L124.73 23.6346C125.268 23.7993 125.723 23.8787 126.095 23.8729C126.481 23.8601 126.797 23.7881 127.044 23.6568C127.301 23.5285 127.503 23.3506 127.649 23.123C127.795 22.8953 127.91 22.642 127.996 22.3632L133.171 5.46589C133.014 5.12376 132.862 4.83754 132.714 4.60721C132.567 4.37689 132.404 4.17989 132.225 4.01624C132.06 3.84567 131.874 3.70692 131.667 3.59997C131.46 3.49303 131.222 3.39838 130.953 3.31602L131.122 2.76324Z" fill="#14325C"/>
<path d="M124.682 24.2121L114.331 22.6467L114.417 22.0751C114.973 22.1592 115.435 22.1711 115.803 22.1107C116.182 22.0416 116.484 21.9241 116.709 21.758C116.945 21.5934 117.118 21.3879 117.229 21.1413C117.34 20.8947 117.418 20.6272 117.461 20.3388L120.008 3.49903C120.039 3.29304 120.031 3.06537 119.985 2.81602C119.948 2.56823 119.842 2.33091 119.666 2.10407C119.501 1.86848 119.254 1.65726 118.924 1.47041C118.594 1.28356 118.151 1.14808 117.595 1.06397L117.681 0.492346L128.032 2.0577L127.946 2.62933C127.379 2.54366 126.906 2.53537 126.527 2.60445C126.16 2.66479 125.858 2.78237 125.621 2.95721C125.395 3.12331 125.227 3.32965 125.116 3.57624C125.005 3.82283 124.928 4.09031 124.884 4.3787L122.359 21.0794C122.327 21.2854 122.324 21.5167 122.348 21.7732C122.383 22.0313 122.477 22.2825 122.63 22.5269C122.793 22.7727 123.043 23.0002 123.38 23.2092C123.718 23.4079 124.181 23.5516 124.768 23.6404L124.682 24.2121Z" fill="#14325C"/>
<path d="M115.513 22.4726C114.561 22.8476 113.704 23.0986 112.942 23.2256C112.181 23.3527 111.508 23.413 110.925 23.4066C110.196 23.3986 109.469 23.1979 108.744 22.8045C108.029 22.4112 107.337 21.914 106.666 21.3128C106.006 20.7014 105.383 20.0278 104.798 19.2922C104.212 18.5566 103.683 17.8372 103.212 17.134C102.751 16.431 102.357 15.7912 102.03 15.2147C101.713 14.6383 101.489 14.2087 101.356 13.926C102.682 13.7218 103.868 13.3389 104.916 12.7775C105.367 12.5324 105.807 12.2404 106.238 11.9013C106.669 11.5623 107.054 11.1602 107.392 10.6952C107.731 10.2301 108.002 9.69661 108.207 9.09466C108.422 8.49281 108.533 7.8065 108.542 7.03571C108.549 6.33784 108.468 5.7067 108.297 5.14228C108.126 4.56746 107.897 4.05971 107.611 3.61903C107.324 3.16794 106.989 2.78403 106.608 2.46732C106.226 2.14019 105.828 1.87017 105.413 1.65728C104.999 1.44438 104.579 1.28872 104.153 1.19028C103.737 1.08154 103.347 1.02517 102.983 1.02117C102.43 1.01511 101.972 1.06736 101.606 1.17793C101.25 1.28862 100.967 1.44177 100.757 1.63739C100.547 1.82259 100.398 2.04493 100.312 2.30442C100.236 2.5536 100.197 2.81881 100.194 3.10004L100.011 19.7397C100.009 19.948 100.038 20.1775 100.097 20.4282C100.168 20.6789 100.295 20.9147 100.48 21.1355C100.676 21.3564 100.955 21.547 101.318 21.7073C101.681 21.8571 102.159 21.9353 102.753 21.9418L102.746 22.5199L92.2783 22.4049L92.2847 21.8268C92.8367 21.8329 93.2904 21.7858 93.6457 21.6855C94.0011 21.5748 94.284 21.4269 94.4943 21.2417C94.7048 21.046 94.8479 20.8236 94.9236 20.5745C95.0096 20.3254 95.0542 20.0602 95.0573 19.779L95.2454 2.65504C95.2477 2.44672 95.2085 2.22232 95.1278 1.98184C95.0575 1.74147 94.9193 1.52119 94.7131 1.32099C94.5175 1.1105 94.2434 0.935602 93.8907 0.796304C93.5381 0.657006 93.0805 0.584268 92.518 0.57809L92.5244 0L102.993 0.114974C104.472 0.13122 105.866 0.276749 107.175 0.551565C108.485 0.826381 109.626 1.2504 110.599 1.82362C111.583 2.38654 112.356 3.10862 112.919 3.98986C113.493 4.86079 113.773 5.9056 113.76 7.12428C113.749 8.15546 113.525 9.05411 113.09 9.8202C112.665 10.5864 112.1 11.2417 111.396 11.7861C110.703 12.3306 109.911 12.7803 109.022 13.1351C108.143 13.4796 107.244 13.751 106.325 13.9493C106.672 14.599 107.056 15.2491 107.476 15.8995C107.896 16.55 108.337 17.1747 108.799 17.7736C109.261 18.3724 109.724 18.9296 110.187 19.4452C110.66 19.9608 111.119 20.4138 111.563 20.8041C112.006 21.184 112.42 21.4854 112.803 21.7084C113.196 21.9211 113.544 22.0291 113.846 22.0324C113.992 22.034 114.19 22.0205 114.44 21.992C114.701 21.9636 114.983 21.8886 115.287 21.7669L115.513 22.4726Z" fill="#14325C"/>
<path d="M67.0638 15.7743C66.9065 14.9242 66.8632 14.0317 66.934 13.097C67.0028 12.1521 67.1909 11.2221 67.4983 10.3072C67.8039 9.38197 68.2264 8.4881 68.766 7.62554C69.314 6.75085 69.9772 5.95546 70.7557 5.23937C71.5445 4.52139 72.4576 3.90226 73.4948 3.38196C74.5302 2.85142 75.688 2.46771 76.9684 2.23084C78.2897 1.98638 79.5309 1.91034 80.6921 2.00272C81.8635 2.09321 82.9431 2.31721 83.9309 2.67473C84.9289 3.03035 85.8323 3.50413 86.641 4.09605C87.4599 4.68609 88.1724 5.35937 88.7785 6.1159C89.3929 6.8603 89.899 7.6777 90.2968 8.56811C90.7048 9.45662 90.996 10.372 91.1703 11.3144C91.3371 12.2158 91.388 13.1492 91.3229 14.1146C91.2681 15.0782 91.0899 16.0328 90.7881 16.9784C90.4966 17.9222 90.0779 18.8366 89.5318 19.7215C88.996 20.6046 88.3295 21.4111 87.5324 22.1413C86.7455 22.8695 85.8241 23.5007 84.7683 24.0351C83.7227 24.5675 82.5393 24.956 81.2179 25.2004C79.9171 25.4411 78.6884 25.4989 77.5317 25.3739C76.377 25.2591 75.302 25.0025 74.3066 24.604C73.3215 24.2036 72.4208 23.687 71.6046 23.0541C70.7883 22.4212 70.0701 21.7172 69.45 20.9421C68.8299 20.167 68.3168 19.3403 67.9106 18.462C67.5128 17.5716 67.2306 16.6757 67.0638 15.7743ZM72.3377 14.735C72.4988 15.6057 72.7041 16.4575 72.9536 17.2906C73.2133 18.1218 73.5227 18.9068 73.8818 19.6454C74.239 20.3739 74.6483 21.0397 75.1094 21.6429C75.579 22.2341 76.1051 22.73 76.6877 23.1307C77.2703 23.5313 77.9108 23.8154 78.6091 23.9828C79.3075 24.1502 80.0673 24.1633 80.8887 24.0219C81.7081 23.8703 82.4242 23.5895 83.0369 23.1795C83.6477 22.7593 84.1628 22.2509 84.5821 21.6542C85.0014 21.0576 85.3328 20.3871 85.5765 19.6429C85.8202 18.8986 85.9948 18.1248 86.1004 17.3213C86.2041 16.5076 86.2365 15.6807 86.1976 14.8404C86.167 13.988 86.089 13.1655 85.9635 12.373C85.8138 11.5638 85.612 10.759 85.3579 9.95854C85.1142 9.15617 84.8104 8.40196 84.4467 7.69593C84.0914 6.97775 83.679 6.32311 83.2094 5.732C82.7399 5.14089 82.2096 4.65105 81.6187 4.26249C81.0258 3.86369 80.376 3.58665 79.6693 3.43138C78.9626 3.2761 78.1893 3.27616 77.3494 3.43155C76.53 3.58315 75.8152 3.84251 75.2052 4.20962C74.6053 4.57483 74.0911 5.03016 73.6623 5.5756C73.2438 6.11914 72.907 6.7323 72.6519 7.41509C72.4072 8.09599 72.2361 8.83209 72.1389 9.62341C72.0416 10.4147 72.0092 11.2417 72.0417 12.1044C72.0844 12.9651 72.1831 13.842 72.3377 14.735Z" fill="#14325C"/>
<path d="M39.8193 14.533L47.0908 11.5919L63.446 20.4831L59.0402 9.59033C58.9621 9.3972 58.8395 9.2052 58.6724 9.01435C58.515 8.81958 58.3026 8.66952 58.0353 8.56416C57.7737 8.44524 57.4533 8.3894 57.0742 8.39666C56.6951 8.40392 56.2448 8.51301 55.7234 8.72392L55.5066 8.18798L61.9235 5.59257L62.1402 6.12852C61.6091 6.34334 61.2028 6.57509 60.9214 6.82376C60.636 7.06278 60.4358 7.31792 60.3208 7.58917C60.2115 7.84686 60.1719 8.11008 60.202 8.37884C60.232 8.64759 60.3017 8.91717 60.4111 9.18755L67.7755 27.3952L66.4573 27.9284L45.055 16.393L51.0426 31.1967C51.1207 31.3898 51.2356 31.5906 51.3873 31.7989C51.5486 32.0033 51.7572 32.1718 52.013 32.3043C52.2785 32.4328 52.6047 32.5032 52.9917 32.5152C53.3843 32.5137 53.8559 32.4016 54.4063 32.179L54.6231 32.7149L48.2207 35.3045L48.0039 34.7686C48.5254 34.5576 48.9288 34.3327 49.2141 34.0936C49.5053 33.8411 49.7055 33.5859 49.8147 33.3282C49.9336 33.0667 49.9781 32.8015 49.948 32.5327C49.918 32.264 49.8483 31.9944 49.7389 31.724L43.1127 15.3414C42.7755 15.1744 42.4771 15.0479 42.2176 14.9619C41.9581 14.8758 41.7074 14.8255 41.4655 14.811C41.2294 14.7829 40.9974 14.7925 40.7693 14.8398C40.5412 14.8871 40.2968 14.9634 40.0361 15.0689L39.8193 14.533Z" fill="#14325C"/>
<path d="M48.3166 35.2544L39.2875 40.5524L38.9949 40.0538C39.48 39.7691 39.8463 39.4877 40.0938 39.2097C40.345 38.9173 40.5059 38.6358 40.5764 38.3649C40.6559 38.0888 40.6613 37.8199 40.5924 37.5584C40.5234 37.2969 40.4152 37.0404 40.2676 36.7888L31.6485 22.0996C31.543 21.9199 31.3938 21.7478 31.2006 21.5834C31.0165 21.4136 30.7845 21.2961 30.5047 21.2308C30.2285 21.1513 29.9035 21.1428 29.5295 21.2052C29.1555 21.2677 28.7259 21.4412 28.2407 21.7259L27.9482 21.2273L36.9773 15.9293L37.2699 16.4279C36.7758 16.7178 36.4031 17.009 36.1519 17.3013C35.9045 17.5793 35.7436 17.8609 35.6693 18.146C35.5988 18.4169 35.598 18.6831 35.6669 18.9446C35.7358 19.2061 35.844 19.4626 35.9916 19.7142L44.5396 34.2822C44.645 34.4619 44.788 34.6437 44.9684 34.8277C45.1578 35.0064 45.3887 35.1427 45.6611 35.2364C45.9425 35.3249 46.28 35.3443 46.6735 35.2946C47.0618 35.2359 47.512 35.0562 48.0241 34.7558L48.3166 35.2544Z" fill="#14325C"/>
<path d="M0 25.8021L7.54792 19.8234L28.9281 46.8152L40.0586 37.9988C39.9699 38.6837 39.9909 39.3813 40.1217 40.0916C40.2525 40.8019 40.4181 41.4514 40.6186 42.0401C40.8634 42.7266 41.1479 43.3899 41.4722 44.03L40.8739 44.753C40.7794 44.5289 40.6645 44.3209 40.5292 44.1291C40.4041 43.9292 40.2809 43.7527 40.1596 43.5996C39.626 42.926 39.0155 42.5956 38.3282 42.6086C37.651 42.6134 36.8709 42.8659 35.988 43.3659C35.1131 43.8762 34.1173 44.5902 33.0005 45.508C31.8756 46.4157 30.6038 47.4314 29.1851 48.5552L22.3261 53.9881L21.8774 53.4216C22.4184 52.9932 22.822 52.5904 23.0881 52.2135C23.3462 51.8263 23.5046 51.46 23.5632 51.1146C23.6137 50.759 23.5777 50.4304 23.4551 50.1289C23.3427 49.8192 23.1774 49.5266 22.9591 49.251L4.73195 26.2398C4.57026 26.0357 4.35561 25.8486 4.088 25.6785C3.83061 25.5003 3.52304 25.3951 3.16529 25.3629C2.80967 25.3124 2.40579 25.3582 1.95365 25.5004C1.50152 25.6426 0.999872 25.932 0.448706 26.3686L0 25.8021Z" fill="#14325C"/>
</svg>
